<?xml version="1.0" encoding="UTF-8" standalone="no"?>
<!-- Created with Inkscape (http://www.inkscape.org/) -->

<svg
   width="376.42203mm"
   height="247.43246mm"
   viewBox="0 0 376.42203 247.43246"
   version="1.1"
   id="svg1"
   xml:space="preserve"
   inkscape:version="1.4 (86a8ad7, 2024-10-11)"
   sodipodi:docname="architecture.svg"
   xmlns:inkscape="http://www.inkscape.org/namespaces/inkscape"
   xmlns:sodipodi="http://sodipodi.sourceforge.net/DTD/sodipodi-0.dtd"
   xmlns:xlink="http://www.w3.org/1999/xlink"
   xmlns="http://www.w3.org/2000/svg"
   xmlns:svg="http://www.w3.org/2000/svg"><sodipodi:namedview
     id="namedview1"
     pagecolor="#ffffff"
     bordercolor="#000000"
     borderopacity="0.25"
     inkscape:showpageshadow="2"
     inkscape:pageopacity="0.0"
     inkscape:pagecheckerboard="0"
     inkscape:deskcolor="#d1d1d1"
     inkscape:document-units="mm"
     showguides="true"
     inkscape:zoom="1.2347908"
     inkscape:cx="719.15015"
     inkscape:cy="454.7329"
     inkscape:window-width="2560"
     inkscape:window-height="1369"
     inkscape:window-x="1912"
     inkscape:window-y="201"
     inkscape:window-maximized="1"
     inkscape:current-layer="g1" /><defs
     id="defs1"><linearGradient
       id="bg"
       x1="0"
       y1="0"
       x2="0"
       y2="1212.4355"
       gradientTransform="matrix(1.173421,0,0,0.77132171,754.26494,-271.18905)"
       gradientUnits="userSpaceOnUse"><stop
         offset="0%"
         stop-color="#0a1628"
         id="stop1" /><stop
         offset="100%"
         stop-color="#0d1f3c"
         id="stop2" /></linearGradient><linearGradient
       id="tier"
       x1="0"
       y1="0"
       x2="0"
       y2="1"><stop
         offset="0%"
         stop-color="#1a2d4a"
         id="stop3" /><stop
         offset="100%"
         stop-color="#111d33"
         id="stop4" /></linearGradient><linearGradient
       id="box"
       x1="0"
       y1="0"
       x2="0"
       y2="1"><stop
         offset="0%"
         stop-color="#1e3a5f"
         id="stop5" /><stop
         offset="100%"
         stop-color="#162d4a"
         id="stop6" /></linearGradient><filter
       id="glow"><feGaussianBlur
         stdDeviation="2"
         result="blur"
         id="feGaussianBlur6" /><feMerge
         id="feMerge7"><feMergeNode
           in="blur"
           id="feMergeNode6" /><feMergeNode
           in="SourceGraphic"
           id="feMergeNode7" /></feMerge></filter><marker
       id="arrow"
       markerWidth="10"
       markerHeight="7"
       refX="10"
       refY="3.5"
       orient="auto"><polygon
         points="0,7 0,0 10,3.5 "
         fill="#4fc3f7"
         id="polygon7" /></marker><marker
       id="arrowDown"
       markerWidth="10"
       markerHeight="7"
       refX="10"
       refY="3.5"
       orient="auto"><polygon
         points="0,7 0,0 10,3.5 "
         fill="#4fc3f7"
         id="polygon8" /></marker><linearGradient
       inkscape:collect="always"
       xlink:href="#box"
       id="linearGradient1"
       x1="149.20638"
       y1="473.065"
       x2="149.20638"
       y2="728.79388"
       gradientTransform="matrix(1.1462911,0,0,0.74927294,809.13671,-270.26913)"
       gradientUnits="userSpaceOnUse" /><linearGradient
       inkscape:collect="always"
       xlink:href="#tier"
       id="linearGradient2"
       x1="11.795008"
       y1="194.23473"
       x2="11.795008"
       y2="740.0589"
       gradientTransform="matrix(2.4584941,0,0,0.44604332,736.65274,-293.71723)"
       gradientUnits="userSpaceOnUse" /><linearGradient
       inkscape:collect="always"
       xlink:href="#box"
       id="linearGradient3"
       x1="227.72955"
       y1="148.63271"
       x2="227.72955"
       y2="317.66599"
       gradientTransform="matrix(1.6648313,0,0,0.6728916,748.16163,-296.20649)"
       gradientUnits="userSpaceOnUse" /><linearGradient
       inkscape:collect="always"
       xlink:href="#box"
       id="linearGradient4"
       x1="419.88107"
       y1="148.63271"
       x2="419.88107"
       y2="317.66599"
       gradientTransform="matrix(1.6648313,0,0,0.67289162,761.21944,-296.2065)"
       gradientUnits="userSpaceOnUse" /><linearGradient
       inkscape:collect="always"
       xlink:href="#box"
       id="linearGradient5"
       x1="244.5014"
       y1="406.85068"
       x2="244.5014"
       y2="593.68549"
       gradientTransform="matrix(2.0419106,0,0,0.48973741,732.61167,-270.00894)"
       gradientUnits="userSpaceOnUse" /><linearGradient
       inkscape:collect="always"
       xlink:href="#tier"
       id="linearGradient6"
       x1="11.795008"
       y1="833.48822"
       x2="11.795008"
       y2="1379.3124"
       gradientTransform="matrix(2.4913338,0,0,0.40670004,736.21137,-271.1621)"
       gradientUnits="userSpaceOnUse" /><linearGradient
       inkscape:collect="always"
       xlink:href="#box"
       id="linearGradient7"
       x1="426.27716"
       y1="473.065"
       x2="426.27716"
       y2="728.79388"
       gradientTransform="matrix(1.3353987,0,0,0.74884,732.61167,-270.00894)"
       gradientUnits="userSpaceOnUse" /><linearGradient
       inkscape:collect="always"
       xlink:href="#box"
       id="linearGradient8"
       x1="703.34796"
       y1="473.065"
       x2="703.34796"
       y2="728.79388"
       gradientTransform="matrix(1.3353987,0,0,0.74884,732.61167,-270.00894)"
       gradientUnits="userSpaceOnUse" /><linearGradient
       inkscape:collect="always"
       xlink:href="#tier"
       id="linearGradient9"
       x1="11.795008"
       y1="1497.3284"
       x2="11.795008"
       y2="2043.1526"
       gradientTransform="matrix(2.4794551,0,0,0.40670887,736.35397,-271.16156)"
       gradientUnits="userSpaceOnUse" /><linearGradient
       inkscape:collect="always"
       xlink:href="#box"
       id="linearGradient10"
       x1="149.20638"
       y1="833.62268"
       x2="149.20638"
       y2="1089.3514"
       gradientTransform="matrix(1.1337719,0,0,0.74930291,814.20291,-270.45399)"
       gradientUnits="userSpaceOnUse" /><linearGradient
       inkscape:collect="always"
       xlink:href="#box"
       id="linearGradient11"
       x1="426.27716"
       y1="833.62268"
       x2="426.27716"
       y2="1089.3514"
       gradientTransform="matrix(1.3353987,0,0,0.74884,732.61167,-270.00894)"
       gradientUnits="userSpaceOnUse" /><linearGradient
       inkscape:collect="always"
       xlink:href="#box"
       id="linearGradient12"
       x1="703.34796"
       y1="833.62268"
       x2="703.34796"
       y2="1089.3514"
       gradientTransform="matrix(1.3353987,0,0,0.74884,732.61167,-270.00894)"
       gradientUnits="userSpaceOnUse" /><filter
       style="color-interpolation-filters:sRGB;"
       inkscape:label="Drop Shadow"
       id="filter5"
       x="-0.097554916"
       y="-0.097554916"
       width="1.2532228"
       height="1.2532228"><feFlood
         result="flood"
         in="SourceGraphic"
         flood-opacity="0.498039"
         flood-color="rgb(0,0,0)"
         id="feFlood4" /><feGaussianBlur
         result="blur"
         in="SourceGraphic"
         stdDeviation="4.000000"
         id="feGaussianBlur4" /><feOffset
         result="offset"
         in="blur"
         dx="7.000000"
         dy="7.000000"
         id="feOffset4" /><feComposite
         result="comp1"
         operator="in"
         in="flood"
         in2="offset"
         id="feComposite4" /><feComposite
         result="comp2"
         operator="over"
         in="SourceGraphic"
         in2="comp1"
         id="feComposite5" /></filter><filter
       style="color-interpolation-filters:sRGB;"
       inkscape:label="Drop Shadow"
       id="filter7"
       x="-0.088290615"
       y="-0.11036328"
       width="1.2300223"
       height="1.2875279"><feFlood
         result="flood"
         in="SourceGraphic"
         flood-opacity="0.498039"
         flood-color="rgb(0,0,0)"
         id="feFlood5" /><feGaussianBlur
         result="blur"
         in="SourceGraphic"
         stdDeviation="4.000000"
         id="feGaussianBlur5" /><feOffset
         result="offset"
         in="blur"
         dx="7.000000"
         dy="7.000000"
         id="feOffset5" /><feComposite
         result="comp1"
         operator="in"
         in="flood"
         in2="offset"
         id="feComposite6" /><feComposite
         result="comp2"
         operator="over"
         in="SourceGraphic"
         in2="comp1"
         id="feComposite7" /></filter><filter
       style="color-interpolation-filters:sRGB;"
       inkscape:label="Drop Shadow"
       id="filter9"
       x="-0.076754517"
       y="-0.076754517"
       width="1.196455"
       height="1.196455"><feFlood
         result="flood"
         in="SourceGraphic"
         flood-opacity="0.498039"
         flood-color="rgb(0,0,0)"
         id="feFlood7" /><feGaussianBlur
         result="blur"
         in="SourceGraphic"
         stdDeviation="4.000000"
         id="feGaussianBlur7" /><feOffset
         result="offset"
         in="blur"
         dx="7.000000"
         dy="7.000000"
         id="feOffset7" /><feComposite
         result="comp1"
         operator="in"
         in="flood"
         in2="offset"
         id="feComposite8" /><feComposite
         result="comp2"
         operator="over"
         in="SourceGraphic"
         in2="comp1"
         id="feComposite9" /></filter></defs><g
     inkscape:label="Слой 1"
     inkscape:groupmode="layer"
     id="layer1"
     transform="translate(-210.14925,135.51669)"><g
       style="font-family:'Segoe UI', Arial, sans-serif"
       id="g1"
       transform="matrix(0.26458333,0,0,0.26458333,10.583336,-63.764582)"><rect
         width="1422.6974"
         height="935.17786"
         fill="url(#bg)"
         id="rect8"
         x="754.26489"
         y="-271.18906"
         style="fill:url(#bg);stroke-width:0.951359" /><text
         x="1432.6117"
         y="-220.00894"
         text-anchor="middle"
         fill="#ffffff"
         font-size="32px"
         font-weight="bold"
         id="text8">InstantAIGate Inference Platform Architecture</text><rect
         x="766.65063"
         y="-205.98346"
         width="1339.9056"
         height="241.2679"
         rx="11.999155"
         fill="url(#tier)"
         stroke="#2a4a7a"
         stroke-width="2.09437"
         id="rect9"
         style="fill:url(#linearGradient2)" /><text
         x="783.05969"
         y="-153.95837"
         fill="#4fc3f7"
         font-size="18px"
         font-weight="bold"
         id="text9">InstantAIGate.Cli</text><text
         x="785.48926"
         y="-132.33865"
         fill="#90caf9"
         font-size="13px"
         id="text10">(Client Tier)</text><rect
         x="1128.0426"
         y="-195.35234"
         width="279.91235"
         height="112.06018"
         rx="7.9974966"
         fill="url(#box)"
         stroke="#4fc3f7"
         stroke-width="1.58763"
         id="rect10"
         style="fill:url(#linearGradient3)" /><text
         x="1267.9988"
         y="-173.39618"
         text-anchor="middle"
         fill="#ffffff"
         font-size="14px"
         font-weight="bold"
         id="text11"
         style="font-size:16px">Interactive CLI</text><text
         x="1143.8086"
         y="-151.77646"
         fill="#b0bec5"
         font-size="12px"
         id="text12"
         style="font-size:14.6667px">• CommandDispatcher</text><text
         x="1143.8086"
         y="-133.77646"
         fill="#b0bec5"
         font-size="12px"
         id="text13"
         style="font-size:14.6667px">• Spectre.Console UI</text><text
         x="1143.8086"
         y="-115.77647"
         fill="#b0bec5"
         font-size="12px"
         id="text14"
         style="font-size:14.6667px">• DebugState Logger</text><rect
         x="1461.0004"
         y="-195.35236"
         width="279.91238"
         height="112.06018"
         rx="7.9974961"
         fill="url(#box)"
         stroke="#4fc3f7"
         stroke-width="1.58763"
         id="rect14"
         style="fill:url(#linearGradient4)" /><text
         x="1600.9565"
         y="-168.53706"
         text-anchor="middle"
         fill="#ffffff"
         font-size="14px"
         font-weight="bold"
         id="text15"
         style="font-size:16px">Release Pipeline</text><text
         x="1475.9565"
         y="-148.53705"
         fill="#b0bec5"
         font-size="12px"
         id="text16"
         style="font-size:14.6667px">• Auto-Commit (Git)</text><text
         x="1475.9565"
         y="-130.53705"
         fill="#b0bec5"
         font-size="12px"
         id="text17"
         style="font-size:14.6667px">• AI Diff Analyzer (MapReduce)</text><text
         x="1475.9565"
         y="-112.53704"
         fill="#b0bec5"
         font-size="12px"
         id="text18"
         style="font-size:14.6667px">• Version Bump</text><text
         x="1475.9565"
         y="-94.537041"
         fill="#b0bec5"
         font-size="12px"
         id="text19"
         style="font-size:14.6667px">• GitHub Release</text><rect
         x="1232.6116"
         y="-70.008942"
         width="380"
         height="90"
         rx="8"
         fill="url(#box)"
         stroke="#4fc3f7"
         stroke-width="1.5"
         id="rect19"
         style="fill:url(#linearGradient5)" /><text
         x="1422.6117"
         y="-48.008942"
         text-anchor="middle"
         fill="#ffffff"
         font-size="14px"
         font-weight="bold"
         id="text20"
         style="font-size:16px">Session Manager</text><text
         x="1247.6116"
         y="-28.008942"
         fill="#b0bec5"
         font-size="12px"
         id="text21"
         style="font-size:13.3333px">• Token Budgeting</text><text
         x="1247.6116"
         y="-10.008942"
         fill="#b0bec5"
         font-size="12px"
         id="text22"
         style="font-size:13.3333px">• Sliding Window (ShiftSessionMemoryAsync)</text><text
         x="1247.6116"
         y="7.9910583"
         fill="#b0bec5"
         font-size="12px"
         id="text23"
         style="font-size:13.3333px">• Checkpoint Rollback (RollbackSessionAsync)</text><circle
         cx="2081.6646"
         cy="-186.37796"
         r="60.227539"
         fill="#1e3a5f"
         stroke="#4fc3f7"
         stroke-width="4.30197"
         id="circle23"
         style="filter:url(#filter5)" /><text
         x="2080.5259"
         y="-191.59853"
         text-anchor="middle"
         fill="#ffffff"
         font-size="48.8358px"
         id="text24"
         style="stroke-width:2.7131">🎥</text><text
         x="2083.2766"
         y="-151.40179"
         text-anchor="middle"
         fill="#4fc3f7"
         font-size="28.7337px"
         font-weight="bold"
         id="text25"
         style="font-size:21.5913px;stroke-width:2.58499">VLM</text><text
         x="1881.674"
         y="-179.07631"
         fill="#90caf9"
         font-size="26.8146px"
         id="text26"
         style="font-size:20.00000025px;stroke-width:2.23455"><tspan
           style="font-style:normal;font-variant:normal;font-weight:normal;font-stretch:normal;font-family:'Segoe UI', Arial, sans-serif;-inkscape-font-specification:'Segoe UI, Arial, sans-serif';font-size:20.00000025px"
           id="tspan12">Vision Support</tspan></text><text
         x="947.71112"
         y="593.56799"
         fill="#90caf9"
         font-size="27.2805px"
         id="text29"
         style="font-size:20.00000025px;stroke-width:2.27337">Multi-Platform</text><text
         x="953.36865"
         y="614.90527"
         fill="#90caf9"
         font-size="27.2805px"
         id="text30"
         style="font-size:20.00000025px;stroke-width:2.27337">(Windows/Linux)</text><line
         x1="1432.6117"
         y1="29.991058"
         x2="1432.6117"
         y2="69.991058"
         stroke="#4fc3f7"
         stroke-width="2"
         marker-end="url(#arrowDown)"
         id="line30" /><text
         x="1082.6116"
         y="54.991058"
         fill="#4fc3f7"
         font-size="13px"
         font-weight="bold"
         id="text31"
         style="font-size:13.3333px"><tspan
           style="font-style:normal;font-variant:normal;font-weight:normal;font-stretch:normal;font-size:13.3333px;font-family:'Segoe UI', Arial, sans-serif;-inkscape-font-specification:'Segoe UI, Arial, sans-serif'"
           id="tspan2">Native State Protocol (SignalR)</tspan></text><rect
         x="766.61005"
         y="68.817543"
         width="1357.8036"
         height="219.9868"
         rx="12.159435"
         fill="url(#tier)"
         stroke="#2a4a7a"
         stroke-width="2.01317"
         id="rect31"
         style="fill:url(#linearGradient6)" /><text
         x="783.05969"
         y="107.32755"
         fill="#4fc3f7"
         font-size="18px"
         font-weight="bold"
         id="text32">InstantAIGate/Server</text><text
         x="785.82306"
         y="124.18121"
         fill="#90caf9"
         font-size="13px"
         id="text33">(Gateway Tier)</text><rect
         x="980.81451"
         y="84.936127"
         width="291.85214"
         height="190.10986"
         rx="6.8671093"
         fill="url(#box)"
         stroke="#4fc3f7"
         stroke-width="1.39014"
         id="rect33"
         style="fill:url(#linearGradient1)" /><text
         x="1102.6116"
         y="107.99106"
         text-anchor="middle"
         fill="#ffffff"
         font-size="14px"
         font-weight="bold"
         id="text34"
         style="font-size:16px">SignalR Hub (GatewayHub)</text><text
         x="994.3468"
         y="141.07286"
         fill="#b0bec5"
         font-size="12px"
         id="text35"
         style="font-size:14.6667px">• Stateful Session Lifecycle</text><text
         x="1036.1226"
         y="154.82445"
         fill="#b0bec5"
         font-size="11px"
         id="text36"
         style="font-size:14.6667px">(SessionId → Context Handle)</text><text
         x="994.3468"
         y="175.53252"
         fill="#b0bec5"
         font-size="12px"
         id="text37"
         style="font-size:14.6667px">• Zero-Mutation Prompt Delta Ingestion</text><text
         x="994.3468"
         y="195.53252"
         fill="#b0bec5"
         font-size="12px"
         id="text38"
         style="font-size:14.6667px">• KV-Cache Manipulation API</text><text
         x="994.3468"
         y="215.53252"
         fill="#b0bec5"
         font-size="12px"
         id="text39"
         style="font-size:14.6667px">• Admin/User Role Separation</text><rect
         x="1302.6117"
         y="84.991058"
         width="340"
         height="190"
         rx="8"
         fill="url(#box)"
         stroke="#4fc3f7"
         stroke-width="1.5"
         id="rect39"
         style="fill:url(#linearGradient7)" /><text
         x="1472.6117"
         y="107.99106"
         text-anchor="middle"
         fill="#ffffff"
         font-size="14px"
         font-weight="bold"
         id="text40"
         style="font-size:16px">Model Management</text><text
         x="1317.6117"
         y="136.46989"
         fill="#b0bec5"
         font-size="12px"
         id="text41"
         style="font-size:14.6667px">• Hot-Swap (Graceful Drain)</text><text
         x="1317.6117"
         y="156.46989"
         fill="#b0bec5"
         font-size="12px"
         id="text42"
         style="font-size:14.6667px">• Download Pipeline (Parallel/Resume)</text><text
         x="1317.6117"
         y="176.46989"
         fill="#b0bec5"
         font-size="12px"
         id="text43"
         style="font-size:14.6667px">• Startup Worker</text><text
         x="1317.6117"
         y="196.46989"
         fill="#b0bec5"
         font-size="12px"
         id="text44"
         style="font-size:14.6667px">• Model Catalog Service</text><rect
         x="1672.6117"
         y="84.991058"
         width="340"
         height="190"
         rx="8"
         fill="url(#box)"
         stroke="#4fc3f7"
         stroke-width="1.5"
         id="rect44"
         style="fill:url(#linearGradient8)" /><text
         x="1842.6116"
         y="107.99106"
         text-anchor="middle"
         fill="#ffffff"
         font-size="14px"
         font-weight="bold"
         id="text45"
         style="font-size:16px">Observability</text><text
         x="1687.6117"
         y="132.42062"
         fill="#b0bec5"
         font-size="12px"
         id="text46"
         style="font-size:14.6667px">• Reactive Metrics Broadcaster</text><text
         x="1687.6117"
         y="152.42062"
         fill="#b0bec5"
         font-size="12px"
         id="text47"
         style="font-size:14.6667px">• SignalR Logger Provider</text><text
         x="1687.6117"
         y="172.42062"
         fill="#b0bec5"
         font-size="12px"
         id="text48"
         style="font-size:14.6667px">• Health Checks</text><text
         x="1702.6117"
         y="190.42062"
         fill="#81c784"
         font-size="11px"
         id="text49"
         style="font-size:14.6667px">/health/live, /health/ready</text><line
         x1="1432.6117"
         y1="289.99106"
         x2="1432.6117"
         y2="339.99106"
         stroke="#4fc3f7"
         stroke-width="2"
         marker-end="url(#arrowDown)"
         id="line49" /><text
         x="1282.2772"
         y="310.07816"
         fill="#4fc3f7"
         font-size="13px"
         font-weight="bold"
         id="text50"
         style="font-size:13.3333px"><tspan
           style="font-style:normal;font-variant:normal;font-weight:normal;font-stretch:normal;font-size:13.3333px;font-family:'Segoe UI', Arial, sans-serif;-inkscape-font-specification:'Segoe UI, Arial, sans-serif'"
           id="tspan1">Direct Memory Offload</tspan></text><text
         x="1860.4622"
         y="307.15878"
         fill="#90caf9"
         font-size="11px"
         id="text51"
         style="font-size:13.3333px">Local Mode: Direct In-Process</text><text
         x="1859.0461"
         y="321.38248"
         fill="#90caf9"
         font-size="11px"
         id="text52"
         style="font-size:12px">Remote Mode: SignalR Client Proxy</text><rect
         x="766.60767"
         y="338.81516"
         width="1351.3296"
         height="219.99161"
         rx="12.101459"
         fill="url(#tier)"
         stroke="#2a4a7a"
         stroke-width="2.0084"
         id="rect52"
         style="fill:url(#linearGradient9)" /><text
         x="783.85071"
         y="374.99106"
         fill="#4fc3f7"
         font-size="18px"
         font-weight="bold"
         id="text53">Core &amp; Native Engine</text><rect
         x="984.00568"
         y="354.93234"
         width="288.6647"
         height="190.11745"
         rx="6.7921104"
         fill="url(#box)"
         stroke="#4fc3f7"
         stroke-width="1.38256"
         id="rect53"
         style="fill:url(#linearGradient10)" /><text
         x="1102.6116"
         y="377.99106"
         text-anchor="middle"
         fill="#ffffff"
         font-size="14px"
         font-weight="bold"
         id="text54"
         style="font-size:16px">Inference Engine</text><text
         x="999.40222"
         y="411.53259"
         fill="#b0bec5"
         font-size="12px"
         id="text55"
         style="font-size:14.6667px">• LibaInference (Text)</text><text
         x="999.40222"
         y="431.53259"
         fill="#b0bec5"
         font-size="12px"
         id="text56"
         style="font-size:14.6667px">• VisionFacade (mtmd/VLM)</text><text
         x="999.40222"
         y="451.53259"
         fill="#b0bec5"
         font-size="12px"
         id="text57"
         style="font-size:14.6667px">• Prefix Tree Context Pool</text><text
         x="999.40222"
         y="471.53259"
         fill="#b0bec5"
         font-size="12px"
         id="text58"
         style="font-size:14.6667px">• Dynamic Request Queue (Backpressure)</text><rect
         x="1302.6117"
         y="354.99106"
         width="340"
         height="190"
         rx="8"
         fill="url(#box)"
         stroke="#4fc3f7"
         stroke-width="1.5"
         id="rect58"
         style="fill:url(#linearGradient11)" /><text
         x="1472.6117"
         y="377.99106"
         text-anchor="middle"
         fill="#ffffff"
         font-size="14px"
         font-weight="bold"
         id="text59"
         style="font-size:16px">Model Provider</text><text
         x="1319.2314"
         y="407.27975"
         fill="#b0bec5"
         font-size="12px"
         id="text60"
         style="font-size:14.6667px">• Context Pooling</text><text
         x="1319.2314"
         y="427.27975"
         fill="#b0bec5"
         font-size="12px"
         id="text61"
         style="font-size:14.6667px">• Weight Registry</text><text
         x="1319.2314"
         y="447.27975"
         fill="#b0bec5"
         font-size="12px"
         id="text62"
         style="font-size:14.6667px">• Backend Facade (llama.cpp)</text><text
         x="1319.2314"
         y="467.27975"
         fill="#b0bec5"
         font-size="12px"
         id="text63"
         style="font-size:14.6667px">• Session Inference Manager</text><rect
         x="1672.6117"
         y="354.99106"
         width="340"
         height="190"
         rx="8"
         fill="url(#box)"
         stroke="#4fc3f7"
         stroke-width="1.5"
         id="rect63"
         style="fill:url(#linearGradient12)" /><text
         x="1842.6116"
         y="377.99106"
         text-anchor="middle"
         fill="#ffffff"
         font-size="14px"
         font-weight="bold"
         id="text64"
         style="font-size:16px">Native Bindings</text><text
         x="1692.4708"
         y="408.0896"
         fill="#b0bec5"
         font-size="12px"
         id="text65"
         style="font-size:14.6667px">• P/Invoke (llama.dll/mtmd.dll)</text><text
         x="1692.4708"
         y="428.0896"
         fill="#b0bec5"
         font-size="12px"
         id="text66"
         style="font-size:14.6667px">• Memory Operations (Shift/Rollback)</text><text
         x="1692.4708"
         y="448.0896"
         fill="#b0bec5"
         font-size="12px"
         id="text67"
         style="font-size:14.6667px">• GGUF Validation</text><text
         x="1692.4708"
         y="468.0896"
         fill="#b0bec5"
         font-size="12px"
         id="text68"
         style="font-size:14.6667px">• Stream Redirection</text><rect
         x="1950.1296"
         y="508.49454"
         width="130.98538"
         height="104.7883"
         rx="15.718246"
         fill="#1e3a5f"
         stroke="#4fc3f7"
         stroke-width="3.92956"
         id="rect68"
         style="filter:url(#filter7)" /><text
         x="2013.9493"
         y="594.84534"
         text-anchor="middle"
         fill="#ffffff"
         font-size="22.6302px"
         font-weight="bold"
         id="text69"
         style="font-size:20.8779px;stroke-width:1.64052;fill:#4fc2f6;fill-opacity:1">CPU</text><line
         x1="1123.2635"
         y1="288.81094"
         x2="1123.2635"
         y2="338.81094"
         stroke="#4fc3f7"
         stroke-width="1.5"
         marker-end="url(#arrowDown)"
         id="line69" /><line
         x1="1123.2635"
         y1="338.81094"
         x2="1123.2635"
         y2="288.81094"
         stroke="#4fc3f7"
         stroke-width="1.5"
         marker-end="url(#arrow)"
         id="line70" /><line
         x1="1842.6116"
         y1="289.99106"
         x2="1842.6116"
         y2="339.99106"
         stroke="#4fc3f7"
         stroke-width="1.5"
         marker-end="url(#arrowDown)"
         id="line71" /><line
         x1="1842.6116"
         y1="339.99106"
         x2="1842.6116"
         y2="289.99106"
         stroke="#4fc3f7"
         stroke-width="1.5"
         marker-end="url(#arrow)"
         id="line72" /><circle
         cx="857.64709"
         cy="540.24207"
         r="81.497711"
         fill="#1e3a5f"
         stroke="#4fc3f7"
         stroke-width="5.82127"
         id="circle12"
         style="font-family:'Segoe UI', Arial, sans-serif;filter:url(#filter9)" /><text
         x="834.1181"
         y="527.9693"
         text-anchor="middle"
         fill="#ffffff"
         font-size="42.9628px"
         id="text70"
         style="stroke-width:2.68518">🪟</text><text
         x="885.56396"
         y="572.37695"
         text-anchor="middle"
         fill="#ffffff"
         font-size="45.734px"
         id="text71"
         style="stroke-width:3.81116">🐧</text><path
         style="fill:#ffffff;stroke-width:0.101381"
         d="m 1999.8842,565.11121 c -0.3756,-0.17384 -0.7123,-0.53152 -0.8551,-0.90825 -0.063,-0.16517 -0.1081,-1.08517 -0.1081,-2.18391 v -1.89853 l -0.5428,-0.2662 c -0.7943,-0.38956 -1.705,-1.27878 -2.108,-2.05804 l -0.3399,-0.65729 -1.911,-4e-4 c -2.1495,-4.1e-4 -2.4048,-0.0616 -2.885,-0.69108 -0.3571,-0.46818 -0.3891,-1.36942 -0.064,-1.80479 0.5015,-0.67164 0.5876,-0.69505 2.6874,-0.7295 l 1.9192,-0.0315 v -1.61591 -1.61596 h -1.7842 c -2.0108,0 -2.2836,-0.0684 -2.7584,-0.6907 -0.3571,-0.46818 -0.3891,-1.36943 -0.064,-1.80478 0.5014,-0.67164 0.5877,-0.69506 2.6874,-0.7295 l 1.9192,-0.0315 v -1.61595 -1.61595 h -1.7842 c -2.0107,0 -2.2837,-0.0684 -2.7583,-0.6907 -0.3572,-0.46819 -0.3891,-1.36943 -0.064,-1.80479 0.5014,-0.67164 0.5875,-0.69505 2.6873,-0.72949 l 1.9192,-0.0315 v -1.61594 -1.61595 h -1.7842 c -2.0107,0 -2.2836,-0.0684 -2.7583,-0.6907 -0.3571,-0.46819 -0.3892,-1.36942 -0.064,-1.80479 0.5014,-0.67165 0.5876,-0.69505 2.6873,-0.7295 l 1.9193,-0.0315 v -1.61595 -1.61594 h -1.7843 c -2.0107,0 -2.2836,-0.0684 -2.7583,-0.6907 -0.3571,-0.46819 -0.3891,-1.36943 -0.064,-1.80478 0.5061,-0.67788 0.5725,-0.69507 2.816,-0.72895 l 2.0475,-0.0309 0.3382,-0.65208 c 0.4002,-0.77197 1.3151,-1.66478 2.1006,-2.05006 l 0.5372,-0.26343 0.031,-2.05284 c 0.034,-2.24927 0.051,-2.31489 0.7291,-2.82116 0.3926,-0.29311 1.3542,-0.29311 1.7468,0 0.6716,0.50146 0.695,0.58767 0.7294,2.68742 l 0.031,1.91915 h 1.6098 1.6098 l 0.031,-1.91915 c 0.034,-2.09975 0.058,-2.18596 0.7294,-2.68742 0.3926,-0.29311 1.3542,-0.29311 1.7469,0 0.6715,0.50146 0.6949,0.58767 0.7294,2.68742 l 0.031,1.91915 h 1.6098 1.6098 l 0.031,-1.91915 c 0.029,-1.75244 0.05,-1.94344 0.2405,-2.19878 0.3975,-0.53182 0.7214,-0.69767 1.3624,-0.69767 0.641,0 0.9648,0.16585 1.3623,0.69767 0.1909,0.25534 0.2118,0.44634 0.2406,2.19878 l 0.031,1.91915 h 1.6097 1.6098 l 0.031,-1.91915 c 0.034,-2.09975 0.057,-2.18596 0.7295,-2.68742 0.3926,-0.29311 1.3543,-0.29311 1.7467,0 0.6718,0.50146 0.6952,0.58767 0.7296,2.68742 l 0.031,1.91915 h 1.6098 1.6099 l 0.031,-1.91915 c 0.034,-2.09975 0.058,-2.18596 0.7296,-2.68742 0.3925,-0.29311 1.3542,-0.29311 1.7468,0 0.6778,0.50609 0.695,0.5725 0.7288,2.81596 l 0.031,2.04763 0.6521,0.33809 c 0.7739,0.40126 1.665,1.31554 2.0529,2.10629 l 0.2662,0.54278 h 1.9151 c 2.1543,0 2.4089,0.0609 2.8892,0.6907 0.3571,0.46818 0.3892,1.36943 0.064,1.80478 -0.5014,0.67166 -0.5876,0.69505 -2.6874,0.72952 l -1.9191,0.0315 v 1.61596 1.61595 h 1.7842 c 2.0107,0 2.2837,0.0684 2.7584,0.69069 0.3569,0.46819 0.3891,1.36944 0.065,1.80479 -0.5014,0.67164 -0.5877,0.69505 -2.6874,0.72951 l -1.9192,0.0315 v 1.61596 1.61595 h 1.7842 c 2.0106,0 2.2837,0.0683 2.7583,0.6907 0.3571,0.46818 0.3891,1.36943 0.064,1.80479 -0.5014,0.67164 -0.5876,0.69505 -2.6874,0.7295 l -1.9191,0.0315 v 1.61595 1.61596 h 1.7841 c 2.0108,0 2.2837,0.0684 2.7584,0.69069 0.357,0.46819 0.3892,1.36944 0.065,1.80478 -0.5015,0.67166 -0.5877,0.69507 -2.6874,0.72952 l -1.9192,0.0315 v 1.61596 1.61595 h 1.7843 c 2.0106,0 2.2837,0.0684 2.7583,0.69069 0.357,0.46819 0.3891,1.36944 0.064,1.80478 -0.5063,0.67809 -0.5719,0.69506 -2.8212,0.729 l -2.0528,0.0309 -0.2635,0.53714 c -0.387,0.78912 -1.2779,1.70051 -2.0552,2.10244 l -0.6573,0.33988 v 1.91091 c 0,2.14954 -0.062,2.40494 -0.6911,2.88505 -0.4682,0.35711 -1.3694,0.3891 -1.8047,0.064 -0.6717,-0.50146 -0.6951,-0.58768 -0.7296,-2.68742 l -0.031,-1.91914 h -1.616 -1.616 v 1.78418 c 0,2.01067 -0.068,2.28364 -0.6906,2.75833 -0.4681,0.35711 -1.3694,0.3891 -1.8047,0.064 -0.6718,-0.50147 -0.6952,-0.58769 -0.7296,-2.68743 l -0.031,-1.91914 h -1.616 -1.6159 v 1.78419 c 0,2.01066 -0.068,2.28364 -0.6907,2.75833 -0.4682,0.3571 -1.3695,0.38909 -1.8047,0.064 -0.6717,-0.50146 -0.6951,-0.58768 -0.7296,-2.68742 l -0.031,-1.91914 h -1.616 -1.6159 v 1.78419 c 0,2.01066 -0.068,2.28364 -0.6907,2.75832 -0.4683,0.35711 -1.3695,0.3891 -1.8048,0.064 -0.6716,-0.50147 -0.6951,-0.58768 -0.7295,-2.68742 l -0.031,-1.91914 h -1.616 -1.6159 v 1.78419 c 0,2.00284 -0.069,2.28446 -0.6776,2.74827 -0.4132,0.31521 -1.1515,0.40558 -1.6035,0.19631 z m 27.4858,-8.23268 c 0.154,-0.11497 0.374,-0.33502 0.489,-0.489 0.2087,-0.27951 0.209,-0.30253 0.209,-13.85014 0,-13.54763 0,-13.57064 -0.209,-13.85015 -0.115,-0.15398 -0.335,-0.37402 -0.489,-0.489 -0.2795,-0.20867 -0.3025,-0.20902 -13.8501,-0.20902 -13.5477,0 -13.5706,3.1e-4 -13.8502,0.20902 -0.154,0.11498 -0.374,0.33502 -0.489,0.48899 -0.2083,0.27895 -0.2091,0.32777 -0.2381,13.57877 -0.017,7.31437 0,13.44577 0.029,13.62534 0.073,0.40632 0.4989,0.92425 0.9072,1.10289 0.2534,0.11089 2.7323,0.1313 13.76,0.11328 13.4103,-0.0218 13.4517,-0.0226 13.7308,-0.23098 z m -21.4767,-3.14212 c -0.8368,-0.20286 -1.4951,-0.56787 -2.1984,-1.21898 -0.6969,-0.64514 -1.2598,-1.65635 -1.4285,-2.56572 -0.1357,-0.73218 -0.1357,-14.09246 0,-14.82464 0.1687,-0.90939 0.7316,-1.92059 1.4285,-2.56572 0.3392,-0.31403 0.8399,-0.68414 1.113,-0.82246 1.0702,-0.54227 1.2077,-0.55105 8.6728,-0.55267 4.1728,-8.9e-4 7.1215,0.0385 7.4515,0.0998 1.8537,0.34374 3.4851,1.97621 3.8388,3.84152 0.064,0.33818 0.103,3.17143 0.102,7.45108 0,7.46502 -0.011,7.60268 -0.5527,8.67282 -0.1382,0.27294 -0.5084,0.77379 -0.8224,1.11298 -0.6451,0.69683 -1.6564,1.25979 -2.5657,1.42841 -0.3327,0.0617 -3.2639,0.098 -7.5022,0.0928 -5.5655,-0.007 -7.0721,-0.0366 -7.5367,-0.1492 z"
         id="path1" /></g></g></svg>
